<svg width="87" height="25" viewBox="0 0 87 25" fill="none" xmlns="http://www.w3.org/2000/svg">
<path d="M22.2955 8.57955H18.1136C18.1136 7.88258 18 7.26515 17.7727 6.72727C17.5455 6.18182 17.2273 5.7197 16.8182 5.34091C16.4091 4.96212 15.9242 4.67803 15.3636 4.48864C14.803 4.29167 14.1818 4.19318 13.5 4.19318C12.197 4.19318 10.9848 4.52273 9.86364 5.18182C8.74242 5.84091 7.79167 6.79924 7.01136 8.05682C6.23106 9.30682 5.68939 10.8258 5.38636 12.6136C5.10606 14.3561 5.13258 15.8144 5.46591 16.9886C5.80682 18.1629 6.39773 19.0492 7.23864 19.6477C8.07955 20.2386 9.10227 20.5341 10.3068 20.5341C11.0417 20.5341 11.7462 20.4432 12.4205 20.2614C13.0947 20.072 13.7159 19.7955 14.2841 19.4318C14.8598 19.0606 15.3636 18.6098 15.7955 18.0795C16.2348 17.5492 16.5758 16.947 16.8182 16.2727H21.0568C20.7083 17.3788 20.197 18.4205 19.5227 19.3977C18.8485 20.3674 18.0379 21.2235 17.0909 21.9659C16.1439 22.7008 15.0833 23.2765 13.9091 23.6932C12.7348 24.1098 11.4697 24.3182 10.1136 24.3182C8.0303 24.3182 6.24621 23.8333 4.76136 22.8636C3.28409 21.8864 2.22348 20.4886 1.57955 18.6705C0.935606 16.8447 0.82197 14.6591 1.23864 12.1136C1.6553 9.63636 2.45833 7.52651 3.64773 5.78409C4.8447 4.04167 6.30303 2.71212 8.02273 1.79545C9.75 0.871211 11.6098 0.40909 13.6023 0.40909C14.9205 0.40909 16.1174 0.590908 17.1932 0.954544C18.2765 1.31818 19.2045 1.85227 19.9773 2.55682C20.75 3.25379 21.3371 4.10985 21.7386 5.125C22.1477 6.13258 22.3333 7.28409 22.2955 8.57955ZM45.847 12L45.495 14.56C45.4737 14.7093 45.4523 14.8267 45.431 14.912C45.431 14.9973 45.4203 15.1147 45.399 15.264L41.719 7.52C41.5057 7.072 41.3777 6.61333 41.335 6.144C41.2923 5.67467 41.3457 5.22667 41.495 4.8C41.623 4.43733 41.8257 4.096 42.103 3.776C42.3803 3.43467 42.743 3.136 43.191 2.88C43.511 2.688 43.8523 2.592 44.215 2.592C44.5777 2.592 44.9403 2.63467 45.303 2.72C45.6443 2.80533 45.9643 2.93333 46.263 3.104C46.583 3.25333 46.839 3.392 47.031 3.52L48.375 1.44C48.0123 1.184 47.575 0.938666 47.063 0.703999C46.5723 0.469332 46.039 0.298666 45.463 0.191999C44.887 0.0639985 44.279 0.0426648 43.639 0.127998C43.0203 0.191999 42.3803 0.405333 41.719 0.768C40.951 1.19467 40.3217 1.70667 39.831 2.304C39.3617 2.88 39.031 3.49867 38.839 4.16C38.647 4.8 38.5723 5.46133 38.615 6.144C38.679 6.82667 38.8603 7.488 39.159 8.128L40.887 11.84C40.1403 11.968 39.4257 12.224 38.743 12.608C38.0603 12.9707 37.4523 13.4187 36.919 13.952C36.3643 14.5067 35.9057 15.1253 35.543 15.808C35.2017 16.4907 34.9777 17.216 34.871 17.984C34.743 18.8587 34.7857 19.68 34.999 20.448C35.2337 21.1947 35.5963 21.856 36.087 22.432C36.599 23.008 37.2177 23.4667 37.943 23.808C38.6683 24.128 39.479 24.288 40.375 24.288C41.399 24.288 42.3697 24.0853 43.287 23.68C44.2043 23.2533 45.0043 22.688 45.687 21.984L46.935 24.608L49.207 23.232L47.351 19.36C47.4577 19.0827 47.543 18.7733 47.607 18.432C47.6923 18.0907 47.7563 17.7493 47.799 17.408C47.8417 17.088 47.8737 16.8 47.895 16.544C47.9377 16.2667 47.9697 16.0427 47.991 15.872L48.183 14.592H51.223L51.575 12H45.847ZM37.527 17.984C37.6123 17.3867 37.7937 16.8533 38.071 16.384C38.3483 15.8933 38.7003 15.4987 39.127 15.2C39.5323 14.9013 39.9803 14.6773 40.471 14.528C40.9617 14.3787 41.495 14.304 42.071 14.304L44.503 19.488C44.1403 20.1493 43.6283 20.6827 42.967 21.088C42.3057 21.4933 41.5697 21.696 40.759 21.696C40.2897 21.696 39.863 21.632 39.479 21.504C39.095 21.3547 38.7643 21.1627 38.487 20.928C38.103 20.5867 37.8257 20.16 37.655 19.648C37.4843 19.136 37.4417 18.5813 37.527 17.984ZM70.647 21.472L70.295 24H78.039L78.391 21.472H76.055L78.487 4.128H83.447L83.095 6.528H85.623L86.327 1.6H68.631L67.927 6.528H70.455L70.807 4.128H75.831L73.399 21.472H70.647Z" fill="#323232"/>
</svg>
