<svg width="222" height="32" viewBox="0 0 222 32" fill="none" xmlns="http://www.w3.org/2000/svg">
<path d="M22.2955 8.57955H18.1136C18.1136 7.88258 18 7.26515 17.7727 6.72727C17.5455 6.18182 17.2273 5.7197 16.8182 5.34091C16.4091 4.96212 15.9242 4.67803 15.3636 4.48864C14.803 4.29167 14.1818 4.19318 13.5 4.19318C12.197 4.19318 10.9848 4.52273 9.86364 5.18182C8.74242 5.84091 7.79167 6.79924 7.01136 8.05682C6.23106 9.30682 5.68939 10.8258 5.38636 12.6136C5.10606 14.3561 5.13258 15.8144 5.46591 16.9886C5.80682 18.1629 6.39773 19.0492 7.23864 19.6477C8.07955 20.2386 9.10227 20.5341 10.3068 20.5341C11.0417 20.5341 11.7462 20.4432 12.4205 20.2614C13.0947 20.072 13.7159 19.7955 14.2841 19.4318C14.8598 19.0606 15.3636 18.6098 15.7955 18.0795C16.2348 17.5492 16.5758 16.947 16.8182 16.2727H21.0568C20.7083 17.3788 20.197 18.4205 19.5227 19.3977C18.8485 20.3674 18.0379 21.2235 17.0909 21.9659C16.1439 22.7008 15.0833 23.2765 13.9091 23.6932C12.7348 24.1098 11.4697 24.3182 10.1136 24.3182C8.0303 24.3182 6.24621 23.8333 4.76136 22.8636C3.28409 21.8864 2.22348 20.4886 1.57955 18.6705C0.935606 16.8447 0.82197 14.6591 1.23864 12.1136C1.6553 9.63636 2.45833 7.52651 3.64773 5.78409C4.8447 4.04167 6.30303 2.71212 8.02273 1.79545C9.75 0.871211 11.6098 0.40909 13.6023 0.40909C14.9205 0.40909 16.1174 0.590908 17.1932 0.954544C18.2765 1.31818 19.2045 1.85227 19.9773 2.55682C20.75 3.25379 21.3371 4.10985 21.7386 5.125C22.1477 6.13258 22.3333 7.28409 22.2955 8.57955ZM29.2585 13.7727L27.5767 24H23.4517L27.3153 0.727272H31.3494L29.8949 9.51136H30.1108C30.6638 8.51894 31.4176 7.73864 32.3722 7.17045C33.3343 6.60227 34.4896 6.31818 35.8381 6.31818C37.035 6.31818 38.0426 6.57197 38.8608 7.07954C39.679 7.58712 40.2547 8.32954 40.5881 9.30682C40.929 10.2841 40.9858 11.4773 40.7585 12.8864L38.8949 24H34.7699L36.5199 13.5227C36.7093 12.3485 36.554 11.4356 36.054 10.7841C35.5616 10.125 34.7813 9.79545 33.7131 9.79545C32.9782 9.79545 32.3002 9.95455 31.679 10.2727C31.0578 10.5833 30.535 11.0341 30.1108 11.625C29.6941 12.2159 29.41 12.9318 29.2585 13.7727ZM50.7472 24.3409C48.9972 24.3409 47.5502 23.9773 46.4062 23.25C45.2623 22.5152 44.4593 21.4773 43.9972 20.1364C43.5426 18.7879 43.4669 17.2008 43.7699 15.375C44.0653 13.5795 44.6676 12.0038 45.5767 10.6477C46.4858 9.28409 47.6222 8.22348 48.9858 7.46591C50.357 6.70076 51.8722 6.31818 53.5312 6.31818C54.607 6.31818 55.5956 6.49242 56.4972 6.84091C57.3987 7.18182 58.16 7.71212 58.7812 8.43182C59.4025 9.15151 59.8305 10.0682 60.0653 11.1818C60.3002 12.2879 60.2888 13.6061 60.0312 15.1364L59.8381 16.3977H45.5199L45.9631 13.625H56.3267C56.4631 12.8371 56.4176 12.1364 56.1903 11.5227C55.9631 10.9015 55.5843 10.4129 55.054 10.0568C54.5237 9.70076 53.8608 9.52273 53.0653 9.52273C52.2547 9.52273 51.4972 9.73106 50.7926 10.1477C50.0956 10.5568 49.5085 11.0871 49.0312 11.7386C48.554 12.3902 48.2509 13.0758 48.1222 13.7955L47.6562 16.4545C47.4896 17.5455 47.5275 18.4356 47.7699 19.125C48.0123 19.8144 48.4366 20.322 49.0426 20.6477C49.6487 20.9735 50.4138 21.1364 51.3381 21.1364C51.9441 21.1364 52.5047 21.053 53.0199 20.8864C53.535 20.7197 53.9934 20.4697 54.3949 20.1364C54.804 19.7955 55.1449 19.3788 55.4176 18.8864L59.179 19.3182C58.7623 20.3333 58.1525 21.2197 57.3494 21.9773C56.5464 22.7273 55.5843 23.3106 54.4631 23.7273C53.3494 24.1364 52.1108 24.3409 50.7472 24.3409ZM67.0426 24.3523C65.9366 24.3523 64.9744 24.1553 64.1562 23.7614C63.3381 23.3598 62.7358 22.7689 62.3494 21.9886C61.9706 21.2083 61.8759 20.2462 62.0653 19.1023C62.232 18.1174 62.5502 17.303 63.0199 16.6591C63.4972 16.0152 64.0805 15.5 64.7699 15.1136C65.4669 14.7197 66.2244 14.4242 67.0426 14.2273C67.8684 14.0303 68.7093 13.8864 69.5653 13.7955C70.6108 13.6894 71.4555 13.5909 72.0994 13.5C72.7509 13.4091 73.2396 13.2727 73.5653 13.0909C73.8911 12.9015 74.0881 12.6136 74.1562 12.2273V12.1591C74.2926 11.303 74.1563 10.6402 73.7472 10.1705C73.3381 9.70076 72.6563 9.46591 71.7017 9.46591C70.7017 9.46591 69.8608 9.68561 69.179 10.125C68.4972 10.5644 68.0009 11.0833 67.6903 11.6818L63.9631 11.1364C64.4328 10.0758 65.0767 9.18939 65.8949 8.47727C66.7131 7.75757 67.6563 7.2197 68.7244 6.86364C69.8002 6.5 70.9479 6.31818 72.1676 6.31818C73.0009 6.31818 73.8153 6.41667 74.6108 6.61364C75.4138 6.81061 76.1222 7.13636 76.7358 7.59091C77.357 8.03788 77.8116 8.64773 78.0994 9.42045C78.3949 10.1932 78.4441 11.1591 78.2472 12.3182L76.304 24H72.3494L72.7585 21.6023H72.6222C72.2964 22.0871 71.8722 22.5417 71.3494 22.9659C70.8267 23.3826 70.2055 23.7197 69.4858 23.9773C68.7661 24.2273 67.9517 24.3523 67.0426 24.3523ZM68.5994 21.3295C69.4252 21.3295 70.1676 21.1667 70.8267 20.8409C71.4858 20.5076 72.0275 20.0682 72.4517 19.5227C72.8759 18.9773 73.1411 18.3826 73.2472 17.7386L73.5881 15.6818C73.4366 15.7879 73.2017 15.8864 72.8835 15.9773C72.5653 16.0682 72.2093 16.1477 71.8153 16.2159C71.429 16.2841 71.0464 16.3447 70.6676 16.3977C70.2888 16.4508 69.9631 16.4962 69.6903 16.5341C69.0616 16.6174 68.4858 16.7538 67.9631 16.9432C67.4479 17.1326 67.0199 17.3977 66.679 17.7386C66.3456 18.072 66.1373 18.5038 66.054 19.0341C65.9328 19.7841 66.1108 20.3561 66.5881 20.75C67.0653 21.1364 67.7358 21.3295 68.5994 21.3295ZM79.3608 30.5455L83.3835 6.54545H87.429L86.9631 9.43182H87.2017C87.4744 9.00758 87.8419 8.55682 88.304 8.07955C88.7737 7.5947 89.3684 7.18182 90.0881 6.84091C90.8078 6.49242 91.6828 6.31818 92.7131 6.31818C94.054 6.31818 95.2093 6.66288 96.179 7.35227C97.1487 8.03409 97.8419 9.04545 98.2585 10.3864C98.6828 11.7197 98.7358 13.3561 98.4176 15.2955C98.0994 17.2121 97.5123 18.8409 96.6562 20.1818C95.8002 21.5227 94.7737 22.5455 93.5767 23.25C92.3797 23.9545 91.0956 24.3068 89.7244 24.3068C88.7244 24.3068 87.9176 24.1402 87.304 23.8068C86.6979 23.4735 86.2396 23.072 85.929 22.6023C85.6184 22.125 85.3873 21.6742 85.2358 21.25H85.054L83.5085 30.5455H79.3608ZM85.9631 15.2727C85.7813 16.4015 85.7775 17.3902 85.9517 18.2386C86.1335 19.0871 86.4934 19.75 87.0312 20.2273C87.5691 20.697 88.2737 20.9318 89.1449 20.9318C90.054 20.9318 90.8494 20.6894 91.5312 20.2045C92.2206 19.7121 92.7926 19.0417 93.2472 18.1932C93.7093 17.3371 94.035 16.3636 94.2244 15.2727C94.3987 14.1894 94.3987 13.2273 94.2244 12.3864C94.0502 11.5455 93.6979 10.8864 93.1676 10.4091C92.6373 9.93182 91.9176 9.69318 91.0085 9.69318C90.1222 9.69318 89.3305 9.92424 88.6335 10.3864C87.9441 10.8485 87.3722 11.4962 86.9176 12.3295C86.4631 13.1629 86.1449 14.1439 85.9631 15.2727ZM122.878 12L122.526 14.56C122.505 14.7093 122.484 14.8267 122.462 14.912C122.462 14.9973 122.452 15.1147 122.43 15.264L118.75 7.52C118.537 7.072 118.409 6.61333 118.366 6.144C118.324 5.67467 118.377 5.22667 118.526 4.8C118.654 4.43733 118.857 4.096 119.134 3.776C119.412 3.43467 119.774 3.136 120.222 2.88C120.542 2.688 120.884 2.592 121.246 2.592C121.609 2.592 121.972 2.63467 122.334 2.72C122.676 2.80533 122.996 2.93333 123.294 3.104C123.614 3.25333 123.87 3.392 124.062 3.52L125.406 1.44C125.044 1.184 124.606 0.938666 124.094 0.703999C123.604 0.469332 123.07 0.298666 122.494 0.191999C121.918 0.0639985 121.31 0.0426648 120.67 0.127998C120.052 0.191999 119.412 0.405333 118.75 0.768C117.982 1.19467 117.353 1.70667 116.862 2.304C116.393 2.88 116.062 3.49867 115.87 4.16C115.678 4.8 115.604 5.46133 115.646 6.144C115.71 6.82667 115.892 7.488 116.19 8.128L117.918 11.84C117.172 11.968 116.457 12.224 115.774 12.608C115.092 12.9707 114.484 13.4187 113.95 13.952C113.396 14.5067 112.937 15.1253 112.574 15.808C112.233 16.4907 112.009 17.216 111.902 17.984C111.774 18.8587 111.817 19.68 112.03 20.448C112.265 21.1947 112.628 21.856 113.118 22.432C113.63 23.008 114.249 23.4667 114.974 23.808C115.7 24.128 116.51 24.288 117.406 24.288C118.43 24.288 119.401 24.0853 120.318 23.68C121.236 23.2533 122.036 22.688 122.718 21.984L123.966 24.608L126.238 23.232L124.382 19.36C124.489 19.0827 124.574 18.7733 124.638 18.432C124.724 18.0907 124.788 17.7493 124.83 17.408C124.873 17.088 124.905 16.8 124.926 16.544C124.969 16.2667 125.001 16.0427 125.022 15.872L125.214 14.592H128.254L128.606 12H122.878ZM114.558 17.984C114.644 17.3867 114.825 16.8533 115.102 16.384C115.38 15.8933 115.732 15.4987 116.158 15.2C116.564 14.9013 117.012 14.6773 117.502 14.528C117.993 14.3787 118.526 14.304 119.102 14.304L121.534 19.488C121.172 20.1493 120.66 20.6827 119.998 21.088C119.337 21.4933 118.601 21.696 117.79 21.696C117.321 21.696 116.894 21.632 116.51 21.504C116.126 21.3547 115.796 21.1627 115.518 20.928C115.134 20.5867 114.857 20.16 114.686 19.648C114.516 19.136 114.473 18.5813 114.558 17.984ZM147.678 21.472L147.326 24H155.07L155.422 21.472H153.086L155.518 4.128H160.478L160.126 6.528H162.654L163.358 1.6H145.662L144.958 6.528H147.486L147.838 4.128H152.862L150.43 21.472H147.678ZM163.328 18.016C163.2 18.8693 163.253 19.68 163.488 20.448C163.722 21.1947 164.085 21.856 164.576 22.432C165.066 23.008 165.685 23.4667 166.432 23.808C167.178 24.128 168 24.288 168.896 24.288C169.514 24.288 170.08 24.2133 170.592 24.064C171.104 23.936 171.541 23.776 171.904 23.584C172.266 23.4133 172.554 23.2427 172.768 23.072C172.981 22.9013 173.109 22.784 173.152 22.72C173.13 22.8267 173.109 22.9227 173.088 23.008C173.088 23.0933 173.077 23.2107 173.056 23.36L172.992 24H177.76L178.112 21.472H175.68L176.992 12H174.784C174.741 12.256 174.688 12.512 174.624 12.768C174.56 13.024 174.506 13.2693 174.464 13.504C174.464 13.44 174.368 13.3013 174.176 13.088C174.005 12.8533 173.749 12.6293 173.408 12.416C173.066 12.224 172.661 12.064 172.192 11.936C171.744 11.7867 171.232 11.712 170.656 11.712C169.76 11.712 168.896 11.8827 168.064 12.224C167.232 12.5653 166.485 13.024 165.824 13.6C165.162 14.176 164.608 14.848 164.16 15.616C163.733 16.384 163.456 17.184 163.328 18.016ZM166.016 17.984C166.08 17.4507 166.229 16.96 166.464 16.512C166.72 16.064 167.04 15.68 167.424 15.36C167.808 15.0187 168.234 14.7627 168.704 14.592C169.194 14.4213 169.717 14.336 170.272 14.336C170.805 14.336 171.285 14.4213 171.712 14.592C172.16 14.7627 172.522 15.008 172.8 15.328C173.098 15.648 173.312 16.0427 173.44 16.512C173.568 16.96 173.589 17.4613 173.504 18.016C173.44 18.528 173.28 19.008 173.024 19.456C172.789 19.904 172.48 20.288 172.096 20.608C171.712 20.9493 171.274 21.216 170.784 21.408C170.314 21.6 169.802 21.696 169.248 21.696C168.778 21.696 168.352 21.632 167.968 21.504C167.584 21.3547 167.253 21.1627 166.976 20.928C166.592 20.5867 166.314 20.16 166.144 19.648C165.973 19.136 165.93 18.5813 166.016 17.984ZM180.508 22.944C180.87 23.4133 181.404 23.7547 182.108 23.968C182.812 24.16 183.558 24.256 184.348 24.256C185.201 24.256 185.916 24.1173 186.492 23.84C187.068 23.5627 187.526 23.2213 187.868 22.816C188.23 22.4107 188.497 21.9947 188.668 21.568C188.838 21.1413 188.945 20.7787 188.988 20.48C189.073 19.8187 189.03 19.2747 188.86 18.848C188.689 18.4 188.444 18.0267 188.124 17.728C187.804 17.4507 187.441 17.216 187.036 17.024C186.652 16.832 186.278 16.6613 185.916 16.512C185.553 16.3627 185.244 16.2133 184.988 16.064C184.732 15.8933 184.604 15.68 184.604 15.424C184.604 15.232 184.636 15.072 184.7 14.944C184.785 14.7947 184.892 14.6667 185.02 14.56C185.148 14.4747 185.297 14.4107 185.468 14.368C185.638 14.3253 185.83 14.304 186.044 14.304C186.193 14.304 186.353 14.3253 186.524 14.368C186.694 14.3893 186.854 14.4213 187.004 14.464L186.78 15.84H189.148L189.564 13.056C189.372 12.8 189.126 12.5867 188.828 12.416C188.55 12.2453 188.252 12.1067 187.932 12C187.633 11.8933 187.334 11.8187 187.036 11.776C186.737 11.7333 186.481 11.712 186.268 11.712C185.905 11.712 185.489 11.776 185.02 11.904C184.55 12.032 184.102 12.2453 183.676 12.544C183.249 12.8213 182.876 13.184 182.556 13.632C182.236 14.08 182.033 14.6347 181.948 15.296C181.841 16.0427 181.884 16.64 182.076 17.088C182.268 17.536 182.534 17.8773 182.876 18.112C183.238 18.368 183.633 18.5707 184.06 18.72C184.508 18.848 184.902 18.9867 185.244 19.136C185.606 19.264 185.884 19.4347 186.076 19.648C186.268 19.8613 186.342 20.1493 186.3 20.512C186.278 20.7253 186.225 20.896 186.14 21.024C186.054 21.152 185.916 21.2693 185.724 21.376C185.553 21.4827 185.382 21.5573 185.212 21.6C185.041 21.6427 184.881 21.664 184.732 21.664C184.369 21.664 184.06 21.6533 183.804 21.632C183.569 21.5893 183.334 21.5147 183.1 21.408L183.26 20.16H180.892L180.508 22.944ZM196.029 4.192L194.941 12H192.253L191.901 14.592H194.589L193.277 24H198.333L198.685 21.472H196.285L197.245 14.592H200.381L200.733 12H197.597L198.685 4.192H196.029ZM203.484 29.472L203.132 32H210.236L210.588 29.472H209.02C210.62 26.9547 212.22 24.4693 213.82 22.016C215.42 19.5413 217.02 17.0453 218.62 14.528H221.244L221.596 12H214.268L213.916 14.528H215.9C215.11 15.7013 214.321 16.8853 213.532 18.08C212.764 19.2533 212.102 20.4373 211.548 21.632C211.313 20.4373 210.972 19.2533 210.524 18.08C210.076 16.8853 209.617 15.7013 209.148 14.528H210.844L211.196 12H204.092L203.74 14.528H206.428C207.004 16.128 207.58 17.7067 208.156 19.264C208.732 20.8213 209.308 22.4 209.884 24C209.286 24.896 208.689 25.8027 208.092 26.72C207.516 27.6373 206.94 28.5547 206.364 29.472H203.484Z" fill="#323232"/>
</svg>
