<svg width="17" height="16" viewBox="0 0 17 16" fill="none" xmlns="http://www.w3.org/2000/svg">
<path d="M11.3476 0.586572C12.1297 -0.195524 13.3999 -0.195524 14.1821 0.586572L15.4148 1.82019C16.1969 2.60204 16.1969 3.87101 15.4148 4.65317L13.9005 6.16743L9.83329 2.10083L11.3476 0.586572V0.586572ZM13.1934 6.8745L5.89747 14.1674C5.57209 14.4927 5.1685 14.7336 4.72736 14.8619L0.962673 15.9694C0.699242 16.0477 0.414223 15.9757 0.219935 15.7536C0.0256468 15.5878 -0.0470002 15.303 0.0305274 15.0371L1.13788 11.2734C1.26803 10.8322 1.50674 10.4286 1.83243 10.1033L9.12622 2.80853L13.1934 6.8745V6.8745Z" fill="#747474"/>
</svg>
