<svg width="118" height="56" viewBox="0 0 118 56" fill="none" xmlns="http://www.w3.org/2000/svg">
<path d="M34.4838 41.1559C34.4298 40.6116 34.1981 40.1888 33.7888 39.8874C33.3795 39.5861 32.824 39.4354 32.1222 39.4354C31.6455 39.4354 31.2429 39.5028 30.9145 39.6378C30.5861 39.7682 30.3343 39.9504 30.1588 40.1843C29.9879 40.4182 29.9024 40.6836 29.9024 40.9805C29.8934 41.2279 29.9452 41.4438 30.0576 41.6282C30.1746 41.8126 30.3343 41.9723 30.5367 42.1072C30.7391 42.2377 30.973 42.3524 31.2384 42.4513C31.5038 42.5458 31.7871 42.6268 32.0885 42.6942L33.33 42.9911C33.9327 43.1261 34.486 43.306 34.9898 43.5309C35.4936 43.7558 35.9299 44.0324 36.2987 44.3608C36.6676 44.6892 36.9532 45.076 37.1556 45.5213C37.3625 45.9666 37.4682 46.4772 37.4727 47.0529C37.4682 47.8986 37.2523 48.6317 36.825 49.2525C36.4022 49.8687 35.7905 50.3478 34.9898 50.6896C34.1936 51.027 33.2333 51.1957 32.1088 51.1957C30.9932 51.1957 30.0216 51.0247 29.194 50.6829C28.3708 50.341 27.7276 49.835 27.2643 49.1648C26.8055 48.4901 26.5648 47.6557 26.5423 46.6616H29.3694C29.4009 47.1249 29.5336 47.5117 29.7675 47.8221C30.0059 48.128 30.323 48.3596 30.7188 48.517C31.1192 48.67 31.5712 48.7464 32.075 48.7464C32.5698 48.7464 32.9994 48.6745 33.3637 48.5305C33.7326 48.3866 34.0182 48.1864 34.2206 47.93C34.423 47.6737 34.5242 47.379 34.5242 47.0462C34.5242 46.7358 34.432 46.4749 34.2476 46.2635C34.0677 46.0521 33.8023 45.8722 33.4514 45.7237C33.1051 45.5753 32.68 45.4403 32.1762 45.3189L30.6716 44.9411C29.5066 44.6577 28.5867 44.2146 27.912 43.6119C27.2373 43.0091 26.9022 42.1972 26.9067 41.1761C26.9022 40.3395 27.1249 39.6085 27.5747 38.9833C28.029 38.3581 28.652 37.87 29.4436 37.5192C30.2353 37.1683 31.1349 36.9929 32.1425 36.9929C33.1681 36.9929 34.0632 37.1683 34.8279 37.5192C35.597 37.87 36.1953 38.3581 36.6226 38.9833C37.0499 39.6085 37.2703 40.3327 37.2838 41.1559H34.4838ZM38.9116 39.5906V37.1818H50.2603V39.5906H46.0298V51H43.142V39.5906H38.9116ZM60.6644 37.1818H63.5859V46.1555C63.5859 47.1631 63.3453 48.0447 62.864 48.8004C62.3872 49.5561 61.7192 50.1454 60.8601 50.5682C60.0009 50.9865 59.0001 51.1957 57.8576 51.1957C56.7106 51.1957 55.7075 50.9865 54.8484 50.5682C53.9892 50.1454 53.3213 49.5561 52.8445 48.8004C52.3677 48.0447 52.1293 47.1631 52.1293 46.1555V37.1818H55.0508V45.9059C55.0508 46.4322 55.1655 46.9 55.3949 47.3093C55.6288 47.7186 55.9572 48.0402 56.38 48.2741C56.8028 48.508 57.2953 48.625 57.8576 48.625C58.4244 48.625 58.9169 48.508 59.3352 48.2741C59.7581 48.0402 60.0842 47.7186 60.3136 47.3093C60.5475 46.9 60.6644 46.4322 60.6644 45.9059V37.1818ZM70.8881 51H65.9896V37.1818H70.9285C72.3184 37.1818 73.5149 37.4585 74.518 38.0117C75.5211 38.5605 76.2925 39.3499 76.8323 40.38C77.3766 41.41 77.6487 42.6425 77.6487 44.0774C77.6487 45.5168 77.3766 46.7538 76.8323 47.7884C76.2925 48.8229 75.5166 49.6168 74.5045 50.1701C73.497 50.7234 72.2915 51 70.8881 51ZM68.9111 48.4968H70.7666C71.6302 48.4968 72.3567 48.3439 72.9459 48.038C73.5397 47.7276 73.985 47.2486 74.2819 46.6009C74.5832 45.9486 74.7339 45.1075 74.7339 44.0774C74.7339 43.0563 74.5832 42.2219 74.2819 41.5742C73.985 40.9265 73.5419 40.4497 72.9527 40.1438C72.3634 39.8379 71.637 39.685 70.7734 39.685H68.9111V48.4968ZM79.8129 51V37.1818H89.1239V39.5906H82.7344V42.8832H88.6449V45.2919H82.7344V48.5913H89.1509V51H79.8129ZM103.005 37.1818V51H100.481L94.4694 42.3029H94.3682V51H91.4466V37.1818H94.0106L99.9751 45.8722H100.097V37.1818H103.005ZM104.892 39.5906V37.1818H116.241V39.5906H112.01V51H109.123V39.5906H104.892Z" fill="#8E8E8E"/>
<path d="M7.68904 0C11.8918 1.03303 15.4968 5.38945 15.4968 10.5415C15.4968 21.3159 5.42638 23.2765 5.42638 29.5933C5.41417 30.1946 5.49656 30.794 5.6705 31.3692C3.1513 31.0132 1.01389 28.0548 1.01389 24.6392C1.01389 15.8869 8.57816 14.1813 8.57816 5.07746C8.49988 3.35343 8.20103 1.64682 7.68904 0" fill="#EC1B34"/>
<path d="M17.8959 12.4417C18.888 13.3374 19.681 14.4345 20.2228 15.6611C20.7646 16.8876 21.0428 18.2159 21.0393 19.5586C21.0393 28.7592 10.7108 29.8803 10.7108 33.4013C10.7012 33.7011 10.7443 34.0002 10.8383 34.2849C9.99864 33.9185 9.28017 33.3181 8.76735 32.5542C8.25452 31.7902 7.96866 30.8946 7.94337 29.9725C7.94337 24.3414 16.4841 22.8993 17.8971 12.4414" fill="#72BE44"/>
<path d="M2.52875 2.91774C2.83423 3.508 3.00414 4.15997 3.0259 4.8254C3.0259 8.05624 0 9.28721 0 12.5711C0.00348721 13.2897 0.191183 13.9951 0.544865 14.619C0.898548 15.2428 1.4062 15.7639 2.01854 16.1316C2.03771 15.873 2.08146 15.617 2.1492 15.3669C2.8554 13.0855 6.17354 10.5622 6.17354 6.98401C6.15605 5.97654 5.77722 5.00956 5.10714 4.26199C4.43707 3.51443 3.52111 3.03689 2.52875 2.91774Z" fill="#00A4E4"/>
<path d="M28.6056 27.2184C29.9208 28.4146 31.1687 29.1175 32.9673 29.1175C33.9662 29.1175 35.7853 28.6922 35.7853 27.3691C35.7853 26.6041 35.214 26.2172 34.0951 26.0252L30.9578 25.5113C28.1661 25.0653 26.637 23.5708 26.637 21.3291C26.637 17.6609 29.581 16.1427 32.8003 16.1427C34.0497 16.135 35.2869 16.3912 36.4322 16.8948C37.5774 17.3984 38.6054 18.1382 39.4499 19.0667L36.5908 21.1371C36.1003 20.5341 35.4827 20.0487 34.783 19.7161C34.0833 19.3835 33.319 19.2122 32.5454 19.2144C31.6813 19.2144 30.4071 19.7697 30.4071 20.7532C30.4071 21.5624 31.0662 21.97 32.5015 22.2063L33.9457 22.4396C36.9512 22.9299 39.4293 23.8691 39.4293 26.7695C39.4293 31.3386 35.34 32.1951 32.5249 32.1951C31.2016 32.2258 29.8876 31.9647 28.6748 31.43C27.462 30.8954 26.3796 30.1001 25.5034 29.0998L28.6056 27.2184Z" fill="#343434"/>
<path d="M48.7029 32.1949C43.8929 32.1949 41.0778 28.4351 41.0778 24.1643C41.0778 19.8994 43.8929 16.1426 48.7029 16.1426C53.5069 16.1426 56.3219 19.8994 56.3219 24.1643C56.3219 28.4351 53.5069 32.1949 48.7029 32.1949ZM48.7029 19.3412C46.497 19.3412 44.8479 20.753 44.8479 24.1643C44.8479 26.3883 45.7383 28.9933 48.7029 28.9933C51.4944 28.9933 52.5548 26.5153 52.5548 24.1643C52.5548 21.7749 51.4944 19.3412 48.7029 19.3412Z" fill="#343434"/>
<path d="M68.6477 21.6292C68.4139 20.9731 67.989 20.4035 67.4287 19.995C66.8683 19.5866 66.1986 19.3583 65.5074 19.3402C63.4364 19.3402 61.7872 20.755 61.7872 24.1663C61.7872 26.3873 62.6748 28.9923 65.6422 28.9923C66.2999 28.9483 66.9337 28.7268 67.4774 28.3512C68.021 27.9755 68.4546 27.4594 68.7326 26.8569L71.7175 28.31C70.4258 30.6788 68.1819 32.1939 65.6422 32.1939C60.8322 32.1939 58.0143 28.437 58.0143 24.1663C58.0143 19.9014 60.6419 16.1445 65.3434 16.1445C68.305 16.1445 70.2529 17.5947 71.6531 20.1111L68.6477 21.6292Z" fill="#343434"/>
<path d="M77.585 16.5723H81.4811L87.1785 31.7651H83.1302L82.3686 29.3757H76.8029L76.0384 31.7651H72.0194L77.585 16.5723ZM81.4577 26.5581L79.5975 20.2848H79.5565L77.6905 26.5581H81.4577Z" fill="#343434"/>
<path d="M88.6721 16.5723H96.2092C99.5984 16.5723 101.675 18.1524 101.675 21.5637C101.683 22.4994 101.38 23.4108 100.815 24.1534C100.251 24.896 99.4566 25.4274 98.5585 25.6632L102.015 31.7681H97.7968L94.8324 26.3041H92.4421V31.7681H88.6721V16.5723ZM92.4421 23.4805H95.8928C97.0997 23.4628 97.9053 22.8485 97.9053 21.4367C97.9053 20.0249 97.0997 19.4076 95.8928 19.387H92.4421V23.4805Z" fill="#343434"/>
</svg>
