<svg width="24" height="24" viewBox="0 0 24 24" fill="none" xmlns="http://www.w3.org/2000/svg">
<rect x="0.5" y="0.5" width="23" height="23" rx="3.5" stroke="#E6E6E6"/>
<path d="M17.6265 7.45505C17.6965 7.52534 17.7359 7.62055 17.7359 7.7198C17.7359 7.81905 17.6965 7.91426 17.6265 7.98455L16.8442 8.76755L15.3442 7.26755L16.1265 6.48455C16.1968 6.41425 16.2922 6.37476 16.3916 6.37476C16.491 6.37476 16.5864 6.41425 16.6567 6.48455L17.6265 7.4543V7.45505ZM16.314 9.29705L14.814 7.79705L9.70422 12.9076C9.66294 12.9488 9.63187 12.9992 9.61347 13.0546L9.00972 14.8651C8.99877 14.8981 8.99722 14.9335 9.00523 14.9673C9.01324 15.0011 9.03051 15.0321 9.0551 15.0567C9.07969 15.0813 9.11063 15.0985 9.14447 15.1065C9.17831 15.1146 9.21371 15.113 9.24672 15.1021L11.0572 14.4983C11.1125 14.4801 11.1629 14.4493 11.2042 14.4083L16.314 9.2978V9.29705Z" fill="#3759A0"/>
<path fill-rule="evenodd" clip-rule="evenodd" d="M6.75 16.125C6.75 16.4234 6.86853 16.7095 7.0795 16.9205C7.29048 17.1315 7.57663 17.25 7.875 17.25H16.125C16.4234 17.25 16.7095 17.1315 16.9205 16.9205C17.1315 16.7095 17.25 16.4234 17.25 16.125V11.625C17.25 11.5255 17.2105 11.4302 17.1402 11.3598C17.0698 11.2895 16.9745 11.25 16.875 11.25C16.7755 11.25 16.6802 11.2895 16.6098 11.3598C16.5395 11.4302 16.5 11.5255 16.5 11.625V16.125C16.5 16.2245 16.4605 16.3198 16.3902 16.3902C16.3198 16.4605 16.2245 16.5 16.125 16.5H7.875C7.77554 16.5 7.68016 16.4605 7.60984 16.3902C7.53951 16.3198 7.5 16.2245 7.5 16.125V7.875C7.5 7.77554 7.53951 7.68016 7.60984 7.60984C7.68016 7.53951 7.77554 7.5 7.875 7.5H12.75C12.8495 7.5 12.9448 7.46049 13.0152 7.39017C13.0855 7.31984 13.125 7.22446 13.125 7.125C13.125 7.02554 13.0855 6.93016 13.0152 6.85983C12.9448 6.78951 12.8495 6.75 12.75 6.75H7.875C7.57663 6.75 7.29048 6.86853 7.0795 7.0795C6.86853 7.29048 6.75 7.57663 6.75 7.875V16.125Z" fill="#3759A0"/>
</svg>
