<svg width="18" height="18" viewBox="0 0 18 18" fill="none" xmlns="http://www.w3.org/2000/svg">
<path d="M9 1C4.5816 1 1 4.5816 1 9C1 13.4184 4.5816 17 9 17C13.4184 17 17 13.4184 17 9C17 4.5816 13.4184 1 9 1Z" stroke="#333333" stroke-opacity="0.7" stroke-width="1.5" stroke-linecap="round" stroke-linejoin="round"/>
<path d="M2.81641 14.0768C2.81641 14.0768 4.59961 11.8 8.99961 11.8C13.3996 11.8 15.1836 14.0768 15.1836 14.0768M8.99961 8.99995C9.63613 8.99995 10.2466 8.7471 10.6967 8.29701C11.1468 7.84692 11.3996 7.23647 11.3996 6.59995C11.3996 5.96343 11.1468 5.35298 10.6967 4.90289C10.2466 4.45281 9.63613 4.19995 8.99961 4.19995C8.36309 4.19995 7.75264 4.45281 7.30255 4.90289C6.85246 5.35298 6.59961 5.96343 6.59961 6.59995C6.59961 7.23647 6.85246 7.84692 7.30255 8.29701C7.75264 8.7471 8.36309 8.99995 8.99961 8.99995V8.99995Z" stroke="#333333" stroke-opacity="0.7" stroke-width="1.5" stroke-linecap="round" stroke-linejoin="round"/>
</svg>
