<svg width="42" height="42" viewBox="0 0 42 42" fill="none" xmlns="http://www.w3.org/2000/svg">
<path d="M0 21C0 9.40202 9.40202 0 21 0V0C32.598 0 42 9.40202 42 21V21C42 32.598 32.598 42 21 42V42C9.40202 42 0 32.598 0 21V21Z" fill="#3D3D3D"/>
<path d="M10.8346 25.0574L9.48209 30.8947C9.43543 31.1081 9.43703 31.3292 9.48677 31.5419C9.53651 31.7546 9.63314 31.9534 9.76959 32.124C9.90603 32.2946 10.0789 32.4325 10.2754 32.5277C10.472 32.6229 10.6874 32.673 10.9058 32.6743C11.0076 32.6846 11.1101 32.6846 11.2119 32.6743L17.0848 31.3218L28.3607 20.0886L22.0679 13.8099L10.8346 25.0574Z" fill="#F0EFEB"/>
<path d="M31.9058 14.4649L27.7058 10.2649C27.4297 9.99016 27.056 9.83594 26.6665 9.83594C26.277 9.83594 25.9033 9.99016 25.6272 10.2649L23.2922 12.5998L29.578 18.8856L31.9129 16.5507C32.0496 16.4133 32.1578 16.2504 32.2314 16.0712C32.305 15.892 32.3425 15.7 32.3419 15.5063C32.3412 15.3126 32.3024 15.1209 32.2275 14.9422C32.1527 14.7635 32.0434 14.6013 31.9058 14.4649V14.4649Z" fill="#F0EFEB"/>
</svg>
