<svg width="24" height="21" viewBox="0 0 24 21" fill="none" xmlns="http://www.w3.org/2000/svg">
<path d="M12.0005 15.9993C11.8613 15.9993 11.7245 15.9629 11.6036 15.8938L4.60083 11.8915C4.53998 11.8563 4.47095 11.8379 4.40069 11.8379C4.33043 11.8379 4.26141 11.8565 4.20059 11.8916C4.13977 11.9268 4.08928 11.9774 4.05422 12.0383C4.01916 12.0992 4.00075 12.1682 4.00085 12.2385V15.9993C4.00074 16.1421 4.03883 16.2823 4.11119 16.4054C4.18355 16.5285 4.28753 16.63 4.41234 16.6993L11.6121 20.6991C11.7309 20.7652 11.8646 20.7998 12.0005 20.7998C12.1365 20.7998 12.2702 20.7652 12.389 20.6991L19.5888 16.6993C19.7136 16.63 19.8175 16.5285 19.8899 16.4054C19.9623 16.2823 20.0004 16.1421 20.0002 15.9993V12.2385C20.0003 12.1682 19.9819 12.0992 19.9469 12.0383C19.9118 11.9774 19.8613 11.9268 19.8005 11.8916C19.7397 11.8565 19.6707 11.8379 19.6004 11.8379C19.5301 11.8379 19.4611 11.8563 19.4003 11.8915L12.3975 15.8938C12.2766 15.9629 12.1398 15.9993 12.0005 15.9993Z" fill="#F9B410"/>
<path d="M23.996 7.12468V7.11918C23.9831 6.99238 23.94 6.8705 23.8704 6.7637C23.8009 6.65691 23.7068 6.56828 23.596 6.50521L12.3964 0.105452C12.2756 0.036349 12.1387 0 11.9995 0C11.8602 0 11.7234 0.036349 11.6025 0.105452L0.402908 6.50521C0.280506 6.57519 0.178775 6.67628 0.10802 6.79824C0.037265 6.92019 0 7.05868 0 7.19968C0 7.34068 0.037265 7.47917 0.10802 7.60112C0.178775 7.72308 0.280506 7.82417 0.402908 7.89415L11.6025 14.2939C11.7234 14.363 11.8602 14.3994 11.9995 14.3994C12.1387 14.3994 12.2756 14.363 12.3964 14.2939L22.2501 8.66362C22.2653 8.65483 22.2826 8.65021 22.3002 8.65023C22.3178 8.65024 22.335 8.6549 22.3502 8.66372C22.3654 8.67255 22.3781 8.68523 22.3868 8.70048C22.3956 8.71574 22.4001 8.73303 22.4001 8.75062V15.9768C22.4001 16.4073 22.7311 16.7768 23.1615 16.7983C23.2697 16.8035 23.3778 16.7867 23.4793 16.7489C23.5807 16.7111 23.6735 16.6531 23.7519 16.5784C23.8303 16.5037 23.8927 16.4139 23.9353 16.3143C23.978 16.2148 24 16.1076 24 15.9993V7.19968C23.9999 7.17463 23.9986 7.1496 23.996 7.12468V7.12468Z" fill="#F9B410"/>
</svg>
