<svg width="24" height="24" viewBox="0 0 24 24" fill="none" xmlns="http://www.w3.org/2000/svg">
<path d="M16.7083 2.38689C16.7083 1.06217 17.7704 0 19.0951 0C20.4199 0 21.482 1.06217 21.482 2.38689C21.482 3.71162 20.4199 4.77379 19.0951 4.77379C17.7704 4.77379 16.7083 3.71162 16.7083 2.38689ZM21.482 22.6755V16.7083H22.8068C23.6183 16.7083 24.1912 15.9086 23.9405 15.1329L21.4343 7.60226C21.2746 7.12692 20.97 6.71357 20.5633 6.42029C20.1566 6.12702 19.6682 5.96858 19.1668 5.96723H19.0235C18.5217 5.96678 18.0324 6.12452 17.6254 6.41805C17.2183 6.71157 16.9141 7.12594 16.756 7.60226L15.7296 10.6813C17.0186 11.3974 17.9017 12.746 17.9017 14.3214V23.8689H20.2886C20.945 23.8689 21.482 23.3319 21.482 22.6755ZM12.5312 11.3377C13.5218 11.3377 14.3214 10.5381 14.3214 9.54757C14.3214 8.55701 13.5218 7.7574 12.5312 7.7574C11.5406 7.7574 10.741 8.55701 10.741 9.54757C10.741 10.5381 11.5406 11.3377 12.5312 11.3377ZM4.17706 4.77379C5.50179 4.77379 6.56396 3.71162 6.56396 2.38689C6.56396 1.06217 5.50179 0 4.17706 0C2.85234 0 1.79017 1.06217 1.79017 2.38689C1.79017 3.71162 2.85234 4.77379 4.17706 4.77379ZM6.56396 22.6755V15.5148H7.16068C7.81708 15.5148 8.35413 14.9778 8.35413 14.3214V8.35413C8.35413 7.04134 7.28003 5.96723 5.96723 5.96723H2.38689C1.0741 5.96723 0 7.04134 0 8.35413V14.3214C0 14.9778 0.537051 15.5148 1.19345 15.5148H1.79017V22.6755C1.79017 23.3319 2.32722 23.8689 2.98362 23.8689H5.37051C6.02691 23.8689 6.56396 23.3319 6.56396 22.6755ZM9.54757 14.3214V17.9017C9.54757 18.5581 10.0846 19.0951 10.741 19.0951V22.6755C10.741 23.3319 11.2781 23.8689 11.9345 23.8689H13.1279C13.7843 23.8689 14.3214 23.3319 14.3214 22.6755V19.0951C14.9778 19.0951 15.5148 18.5581 15.5148 17.9017V14.3214C15.5148 13.3427 14.7033 12.5312 13.7246 12.5312H11.3377C10.3591 12.5312 9.54757 13.3427 9.54757 14.3214Z" fill="#F9B410"/>
<path d="M21.482 16.2083H20.982V16.7083V22.6755C20.982 23.0557 20.6688 23.3689 20.2886 23.3689H18.4017V14.3214C18.4017 12.7018 17.5701 11.3008 16.3294 10.4633L17.2303 7.76037L17.2305 7.75976C17.3555 7.38322 17.596 7.05565 17.9178 6.82361C18.2396 6.59157 18.6264 6.46687 19.0231 6.46723H19.0235H19.1661C19.5628 6.46844 19.9491 6.59385 20.2709 6.82586C20.5927 7.05791 20.8337 7.38493 20.9602 7.761C20.9602 7.76115 20.9603 7.7613 20.9603 7.76146L23.4648 15.2866C23.4649 15.2872 23.4651 15.2878 23.4653 15.2884C23.6123 15.7472 23.2715 16.2083 22.8068 16.2083H21.482ZM6.56396 15.0148H6.06396V15.5148V22.6755C6.06396 23.0557 5.75076 23.3689 5.37051 23.3689H2.98362C2.60336 23.3689 2.29017 23.0557 2.29017 22.6755V15.5148V15.0148H1.79017H1.19345C0.813193 15.0148 0.5 14.7016 0.5 14.3214V8.35413C0.5 7.31748 1.35024 6.46723 2.38689 6.46723H5.96723C7.00388 6.46723 7.85413 7.31748 7.85413 8.35413V14.3214C7.85413 14.7016 7.54093 15.0148 7.16068 15.0148H6.56396ZM11.241 19.0951V18.5951H10.741C10.3608 18.5951 10.0476 18.282 10.0476 17.9017V14.3214C10.0476 13.6189 10.6353 13.0312 11.3377 13.0312H13.7246C14.4271 13.0312 15.0148 13.6189 15.0148 14.3214V17.9017C15.0148 18.282 14.7016 18.5951 14.3214 18.5951H13.8214V19.0951V22.6755C13.8214 23.0557 13.5082 23.3689 13.1279 23.3689H11.9345C11.5542 23.3689 11.241 23.0557 11.241 22.6755V19.0951ZM17.2083 2.38689C17.2083 1.33831 18.0466 0.5 19.0951 0.5C20.1437 0.5 20.982 1.33831 20.982 2.38689C20.982 3.43548 20.1437 4.27379 19.0951 4.27379C18.0466 4.27379 17.2083 3.43548 17.2083 2.38689ZM13.8214 9.54757C13.8214 10.262 13.2456 10.8377 12.5312 10.8377C11.8168 10.8377 11.241 10.262 11.241 9.54757C11.241 8.83316 11.8168 8.2574 12.5312 8.2574C13.2456 8.2574 13.8214 8.83316 13.8214 9.54757ZM6.06396 2.38689C6.06396 3.43548 5.22565 4.27379 4.17706 4.27379C3.12848 4.27379 2.29017 3.43548 2.29017 2.38689C2.29017 1.33831 3.12848 0.5 4.17706 0.5C5.22565 0.5 6.06396 1.33831 6.06396 2.38689Z" stroke="#91C197" stroke-opacity="0.2"/>
</svg>
