<svg width="10" height="17" viewBox="0 0 10 17" fill="none" xmlns="http://www.w3.org/2000/svg">
<path d="M9.65669 0.332698C9.54859 0.227237 9.42017 0.143566 9.27878 0.0864761C9.1374 0.0293864 8.98583 0 8.83276 0C8.67968 0 8.52812 0.0293864 8.38673 0.0864761C8.24535 0.143566 8.11693 0.227237 8.00883 0.332698L0.272264 7.86118C0.185957 7.94499 0.117485 8.04455 0.0707664 8.15415C0.0240478 8.26374 0 8.38123 0 8.49988C0 8.61853 0.0240478 8.73602 0.0707664 8.84561C0.117485 8.95521 0.185957 9.05476 0.272264 9.13858L8.00883 16.6671C8.46501 17.111 9.2005 17.111 9.65669 16.6671C10.1129 16.2231 10.1129 15.5074 9.65669 15.0635L2.91629 8.49535L9.666 1.92718C10.1129 1.49232 10.1129 0.767556 9.65669 0.332698Z" fill="#333333"/>
</svg>
