<svg width="16" height="16" viewBox="0 0 16 16" fill="none" xmlns="http://www.w3.org/2000/svg">
<path d="M1.52381 13.7143H6.85714V15.2381H1.52381C0.678095 15.2381 0 14.56 0 13.7143V1.52381C0 1.11967 0.160544 0.732083 0.446313 0.446313C0.732083 0.160544 1.11967 0 1.52381 0H10.6667C11.0708 0 11.4584 0.160544 11.7442 0.446313C12.0299 0.732083 12.1905 1.11967 12.1905 1.52381V8.03048L11.0476 7.40571L10.6667 7.61905V1.52381H6.85714H6.47619H4.95238H3.42857H3.04762H1.52381V13.7143ZM15.2381 11.4286L11.0476 9.14286L6.85714 11.4286L11.0476 13.7143L15.2381 11.4286ZM8.38095 13.021V14.5448L11.0476 16L13.7143 14.5448V13.021L11.0476 14.4762L8.38095 13.021Z" fill="#333333" fill-opacity="0.7"/>
</svg>
