<svg width="16" height="16" viewBox="0 0 16 16" fill="none" xmlns="http://www.w3.org/2000/svg">
<path d="M5.14286 4.85714C5.14286 5.08447 5.05255 5.30249 4.89181 5.46323C4.73106 5.62398 4.51304 5.71429 4.28571 5.71429C4.05839 5.71429 3.84037 5.62398 3.67962 5.46323C3.51888 5.30249 3.42857 5.08447 3.42857 4.85714C3.42857 4.62981 3.51888 4.4118 3.67962 4.25105C3.84037 4.09031 4.05839 4 4.28571 4C4.51304 4 4.73106 4.09031 4.89181 4.25105C5.05255 4.4118 5.14286 4.62981 5.14286 4.85714ZM4.28571 9.14286C4.51304 9.14286 4.73106 9.05255 4.89181 8.89181C5.05255 8.73106 5.14286 8.51304 5.14286 8.28571C5.14286 8.05839 5.05255 7.84037 4.89181 7.67962C4.73106 7.51888 4.51304 7.42857 4.28571 7.42857C4.05839 7.42857 3.84037 7.51888 3.67962 7.67962C3.51888 7.84037 3.42857 8.05839 3.42857 8.28571C3.42857 8.51304 3.51888 8.73106 3.67962 8.89181C3.84037 9.05255 4.05839 9.14286 4.28571 9.14286ZM5.14286 11.7143C5.14286 11.9416 5.05255 12.1596 4.89181 12.3204C4.73106 12.4811 4.51304 12.5714 4.28571 12.5714C4.05839 12.5714 3.84037 12.4811 3.67962 12.3204C3.51888 12.1596 3.42857 11.9416 3.42857 11.7143C3.42857 11.487 3.51888 11.2689 3.67962 11.1082C3.84037 10.9474 4.05839 10.8571 4.28571 10.8571C4.51304 10.8571 4.73106 10.9474 4.89181 11.1082C5.05255 11.2689 5.14286 11.487 5.14286 11.7143V11.7143ZM7.42857 4.57143C7.27702 4.57143 7.13167 4.63163 7.02451 4.7388C6.91735 4.84596 6.85714 4.99131 6.85714 5.14286C6.85714 5.29441 6.91735 5.43975 7.02451 5.54692C7.13167 5.65408 7.27702 5.71429 7.42857 5.71429H12C12.1516 5.71429 12.2969 5.65408 12.4041 5.54692C12.5112 5.43975 12.5714 5.29441 12.5714 5.14286C12.5714 4.99131 12.5112 4.84596 12.4041 4.7388C12.2969 4.63163 12.1516 4.57143 12 4.57143H7.42857ZM6.85714 8.57143C6.85714 8.41988 6.91735 8.27453 7.02451 8.16737C7.13167 8.0602 7.27702 8 7.42857 8H12C12.1516 8 12.2969 8.0602 12.4041 8.16737C12.5112 8.27453 12.5714 8.41988 12.5714 8.57143C12.5714 8.72298 12.5112 8.86833 12.4041 8.97549C12.2969 9.08265 12.1516 9.14286 12 9.14286H7.42857C7.27702 9.14286 7.13167 9.08265 7.02451 8.97549C6.91735 8.86833 6.85714 8.72298 6.85714 8.57143ZM7.42857 11.4286C7.27702 11.4286 7.13167 11.4888 7.02451 11.5959C6.91735 11.7031 6.85714 11.8484 6.85714 12C6.85714 12.1516 6.91735 12.2969 7.02451 12.4041C7.13167 12.5112 7.27702 12.5714 7.42857 12.5714H12C12.1516 12.5714 12.2969 12.5112 12.4041 12.4041C12.5112 12.2969 12.5714 12.1516 12.5714 12C12.5714 11.8484 12.5112 11.7031 12.4041 11.5959C12.2969 11.4888 12.1516 11.4286 12 11.4286H7.42857ZM0 2.28571C0 1.67951 0.240816 1.09812 0.66947 0.66947C1.09812 0.240816 1.67951 0 2.28571 0H13.7143C14.3205 0 14.9019 0.240816 15.3305 0.66947C15.7592 1.09812 16 1.67951 16 2.28571V13.7143C16 14.3205 15.7592 14.9019 15.3305 15.3305C14.9019 15.7592 14.3205 16 13.7143 16H2.28571C1.67951 16 1.09812 15.7592 0.66947 15.3305C0.240816 14.9019 0 14.3205 0 13.7143V2.28571ZM2.28571 1.14286C1.98261 1.14286 1.69192 1.26327 1.47759 1.47759C1.26327 1.69192 1.14286 1.98261 1.14286 2.28571V13.7143C1.14286 14.0174 1.26327 14.3081 1.47759 14.5224C1.69192 14.7367 1.98261 14.8571 2.28571 14.8571H13.7143C14.0174 14.8571 14.3081 14.7367 14.5224 14.5224C14.7367 14.3081 14.8571 14.0174 14.8571 13.7143V2.28571C14.8571 1.98261 14.7367 1.69192 14.5224 1.47759C14.3081 1.26327 14.0174 1.14286 13.7143 1.14286H2.28571Z" fill="#333333" fill-opacity="0.7"/>
</svg>
