<svg width="10" height="17" viewBox="0 0 10 17" fill="none" xmlns="http://www.w3.org/2000/svg">
<path d="M0.343314 16.6673C0.451415 16.7728 0.579836 16.8564 0.721219 16.9135C0.862603 16.9706 1.01417 17 1.16724 17C1.32032 17 1.47189 16.9706 1.61327 16.9135C1.75465 16.8564 1.88307 16.7728 1.99117 16.6673L9.72774 9.13882C9.81404 9.05501 9.88251 8.95545 9.92923 8.84586C9.97595 8.73626 10 8.61877 10 8.50012C10 8.38147 9.97595 8.26398 9.92923 8.15439C9.88251 8.04479 9.81404 7.94524 9.72774 7.86142L1.99117 0.332939C1.53499 -0.110978 0.799501 -0.110978 0.343314 0.332939C-0.112874 0.776857 -0.112874 1.49256 0.343314 1.93648L7.08371 8.50465L0.334005 15.0728C-0.112872 15.5077 -0.112874 16.2324 0.343314 16.6673Z" fill="#333333"/>
</svg>
