<svg width="16" height="16" viewBox="0 0 16 16" fill="none" xmlns="http://www.w3.org/2000/svg">
<circle cx="7.70376" cy="10.0741" r="5.42593" stroke="#717171"/>
<path d="M8.67608 10.3862V8.60179C9.3343 8.91938 9.79036 9.59984 9.79036 10.3862H10.3475C10.3475 9.28257 9.64885 8.34125 8.67608 7.99183V7H8.11894V7.86233C7.93856 7.84203 7.75484 7.84062 7.56181 7.86233V7H7.00467V7.99183C5.16074 8.65418 4.73893 11.1102 6.2665 12.3616H5.33325V12.9259H10.3475V12.3616H7.84037C6.76513 12.3616 5.89039 11.4754 5.89039 10.3862C5.89039 9.59984 6.34645 8.91938 7.00467 8.60179V10.3862H7.56181V8.43118C7.74709 8.4042 7.93334 8.40416 8.11894 8.43118V10.3862H8.67608Z" fill="#717171"/>
<path d="M8 0L7.84005 0.0364983L1.45232 1.6455L0 2.00549L0.845736 2.20911V5.5708C0.540658 5.70412 0.334717 5.94731 0.334717 6.23161C0.334717 6.4354 0.442396 6.63084 0.634065 6.77495C0.825734 6.91905 1.08569 7 1.35676 7C1.62782 7 1.88778 6.91905 2.07944 6.77495C2.27111 6.63084 2.37879 6.4354 2.37879 6.23161C2.37879 5.94731 2.17285 5.70412 1.86777 5.5708V2.4742L2.88981 2.72585V4.69484C2.88981 5.00988 3.14532 5.27113 3.44887 5.4517C3.75241 5.63112 4.12954 5.7579 4.58231 5.87162C5.48885 6.0983 6.68361 6.23161 8 6.23161C9.31638 6.23161 10.5111 6.09868 11.4177 5.87124C11.8705 5.7579 12.2476 5.63112 12.5511 5.45132C12.8547 5.27113 13.1102 5.00988 13.1102 4.69484V2.72585L14.5477 2.36548L16 2.00549L14.5472 1.64512L8.15944 0.0364983L8 0ZM8 0.804885L12.7908 2.00549L8 3.20609L3.2092 2.00549L8 0.804885ZM7.7037 4.83891L8.59259 5.65385C8.59259 4.9696 12.1481 4.84615 11.9282 4.83891C11.7667 4.93496 11.3421 3.94318 10.963 4.03846C10.2056 4.22787 8.92759 4.83891 7.7037 4.83891C6.47981 4.83891 6.68377 3.95941 5.92593 3.76923C5.54777 3.67434 4.01333 4.13413 3.85185 4.03846C3.68935 3.94241 3.91185 4.69868 3.91185 4.69484L7.7037 4.83891Z" fill="#717171"/>
</svg>
