<svg width="20" height="20" viewBox="0 0 20 20" fill="none" xmlns="http://www.w3.org/2000/svg">
<path d="M10.0566 6.11108C7.88995 6.11108 6.16772 7.83331 6.16772 9.99997C6.16772 12.1666 7.88995 13.8889 10.0566 13.8889C12.2233 13.8889 13.9455 12.1666 13.9455 9.99997C13.9455 7.83331 12.2233 6.11108 10.0566 6.11108ZM10.0566 12.7778C8.50106 12.7778 7.27884 11.5555 7.27884 9.99997C7.27884 8.44442 8.50106 7.2222 10.0566 7.2222C11.6122 7.2222 12.8344 8.44442 12.8344 9.99997C12.8344 11.5555 11.6122 12.7778 10.0566 12.7778Z" fill="#333333" fill-opacity="0.7"/>
<path d="M18.2223 8.16664L16.6668 7.66664L16.3334 6.83331L17.1112 5.38886C17.2779 5.05553 17.2223 4.61108 16.9445 4.33331L15.6112 2.99997C15.3334 2.7222 14.889 2.66664 14.5557 2.83331L13.1112 3.61108L12.2779 3.27775L11.7779 1.7222C11.6668 1.38886 11.3334 1.11108 10.9445 1.11108H9.05565C8.66676 1.11108 8.33343 1.38886 8.27787 1.77775L7.77787 3.33331C7.44454 3.38886 7.16676 3.49997 6.88898 3.66664L5.44454 2.88886C5.11121 2.7222 4.66676 2.77775 4.38898 3.05553L3.05565 4.38886C2.77787 4.66664 2.72232 5.11108 2.88898 5.44442L3.61121 6.83331C3.5001 7.11108 3.38898 7.44442 3.27787 7.7222L1.72232 8.2222C1.38898 8.33331 1.11121 8.66664 1.11121 9.05553V10.9444C1.11121 11.3333 1.38898 11.6666 1.77787 11.7778L3.33343 12.2778L3.66676 13.1111L2.88898 14.5555C2.72232 14.8889 2.77787 15.3333 3.05565 15.6111L4.38898 16.9444C4.66676 17.2222 5.11121 17.2778 5.44454 17.1111L6.88898 16.3333L7.72232 16.6666L8.22232 18.2778C8.33343 18.6111 8.66676 18.8889 9.05565 18.8889H10.9445C11.3334 18.8889 11.6668 18.6111 11.7779 18.2778L12.2779 16.6666L13.1112 16.3333L14.5557 17.1111C14.889 17.2778 15.3334 17.2222 15.6112 16.9444L16.9445 15.6111C17.2223 15.3333 17.2779 14.8889 17.1112 14.5555L16.3334 13.1111L16.6668 12.2778L18.2779 11.7778C18.6112 11.6666 18.889 11.3333 18.889 10.9444V9.05553C18.889 8.66664 18.6112 8.27775 18.2223 8.16664V8.16664ZM17.7779 10.7778L15.7779 11.3889L15.7223 11.6666L15.2223 12.8333L15.0557 13.1111L16.0557 14.9444L14.9445 16.0555L13.1112 15.0555L12.8334 15.2222C12.4445 15.4444 12.0557 15.6111 11.6668 15.7222L11.389 15.7778L10.7779 17.7778H9.22232L8.61121 15.7778L8.33343 15.7222L7.16676 15.2222L6.88898 15.0555L5.05565 16.0555L3.94454 14.9444L4.94454 13.1111L4.77787 12.8333C4.55565 12.4444 4.38898 12.0555 4.27787 11.6666L4.22232 11.3889L2.22232 10.7778V9.2222L4.11121 8.66664L4.22232 8.38886C4.33343 7.94442 4.5001 7.55553 4.72232 7.16664L4.88898 6.88886L3.94454 5.05553L5.05565 3.94442L6.83343 4.94442L7.11121 4.77775C7.5001 4.55553 7.88898 4.38886 8.33343 4.27775L8.61121 4.16664L9.22232 2.2222H10.7779L11.389 4.16664L11.6668 4.27775C12.0557 4.38886 12.4445 4.55553 12.8334 4.77775L13.1112 4.94442L14.9445 3.94442L16.0557 5.05553L15.0557 6.88886L15.2223 7.16664C15.4445 7.55553 15.6112 7.94442 15.7223 8.33331L15.7779 8.61108L17.7779 9.2222V10.7778V10.7778Z" fill="#333333" fill-opacity="0.7"/>
</svg>
